<svg xmlns="http://www.w3.org/2000/svg" xmlns:xlink="http://www.w3.org/1999/xlink" width="700" zoomAndPan="magnify" viewBox="0 0 525 525.000007" height="700" preserveAspectRatio="xMidYMid meet" version="1.0"><defs><clipPath id="581fc17f34"><path d="M 138.644531 0 L 386.421875 0 L 386.421875 524 L 138.644531 524 Z M 138.644531 0 " clip-rule="nonzero"/></clipPath></defs><g clip-path="url(#581fc17f34)"><path fill="#ffffff" d="M 329.261719 86.824219 L 386.421875 86.824219 L 386.421875 0.664062 L 313.429688 0.664062 L 313.429688 0.996094 C 217.464844 4.511719 197.675781 58.25 196.027344 115.070312 L 195.808594 115.070312 L 195.808594 174.851562 L 138.644531 174.851562 L 138.644531 261.121094 L 195.808594 261.121094 L 195.808594 523.335938 L 298.371094 523.335938 L 298.371094 261.121094 L 371.914062 261.121094 L 386.421875 174.851562 L 298.371094 174.851562 L 298.371094 121.332031 C 298.371094 102.320312 311.121094 86.824219 329.261719 86.824219 Z M 329.261719 86.824219 " fill-opacity="1" fill-rule="nonzero"/></g></svg>