<svg xmlns="http://www.w3.org/2000/svg" xmlns:xlink="http://www.w3.org/1999/xlink" width="700" zoomAndPan="magnify" viewBox="0 0 525 525.000007" height="700" preserveAspectRatio="xMidYMid meet" version="1.0"><defs><clipPath id="50f08e1cf4"><path d="M 0.5 0 L 524.5 0 L 524.5 524 L 0.5 524 Z M 0.5 0 " clip-rule="nonzero"/></clipPath></defs><g clip-path="url(#50f08e1cf4)"><path fill="#ffffff" d="M 153.921875 1.800781 C 126.058594 3.109375 107.027344 7.578125 90.390625 14.09375 C 73.164062 20.808594 58.574219 29.792969 44.0625 44.378906 C 29.523438 58.964844 20.589844 73.578125 13.949219 90.832031 C 7.507812 107.515625 3.140625 126.546875 1.90625 154.4375 C 0.671875 182.351562 0.398438 191.261719 0.523438 262.394531 C 0.648438 333.503906 0.96875 342.441406 2.300781 370.378906 C 3.632812 398.246094 8.078125 417.25 14.59375 433.910156 C 21.304688 451.140625 30.289062 465.703125 44.878906 480.242188 C 59.464844 494.777344 74.078125 503.6875 91.328125 510.351562 C 107.988281 516.792969 127.042969 521.1875 154.910156 522.398438 C 182.851562 523.632812 191.761719 523.902344 262.871094 523.753906 C 334.003906 523.632812 342.914062 523.3125 370.855469 521.976562 C 398.722656 520.644531 417.726562 516.175781 434.386719 509.6875 C 451.613281 502.949219 466.203125 493.988281 480.714844 479.402344 C 495.226562 464.8125 504.164062 450.203125 510.828125 432.949219 C 517.269531 416.289062 521.664062 397.234375 522.871094 369.394531 C 524.082031 341.453125 524.378906 332.519531 524.253906 261.410156 C 524.128906 190.300781 523.785156 181.390625 522.476562 153.449219 C 521.144531 125.558594 516.703125 106.554688 510.183594 89.890625 C 503.445312 72.664062 494.488281 58.101562 479.898438 43.5625 C 465.3125 29.050781 450.703125 20.089844 433.449219 13.453125 C 416.789062 7.007812 397.734375 2.617188 369.867188 1.40625 C 341.925781 0.171875 332.992188 -0.0976562 261.882812 0.0234375 C 190.773438 0.148438 181.863281 0.46875 153.921875 1.800781 M 156.984375 475.230469 C 131.460938 474.121094 117.589844 469.875 108.335938 466.320312 C 96.09375 461.582031 87.378906 455.902344 78.171875 446.796875 C 68.992188 437.640625 63.316406 428.925781 58.527344 416.734375 C 54.949219 407.503906 50.628906 393.65625 49.417969 368.109375 C 48.109375 340.515625 47.816406 332.222656 47.691406 262.296875 C 47.566406 192.398438 47.816406 184.105469 49.023438 156.484375 C 50.109375 130.964844 54.378906 117.09375 57.933594 107.859375 C 62.671875 95.617188 68.324219 86.90625 77.457031 77.699219 C 86.613281 68.519531 95.328125 62.839844 107.546875 58.050781 C 116.777344 54.449219 130.625 50.152344 156.144531 48.945312 C 183.765625 47.636719 192.03125 47.363281 261.957031 47.21875 C 331.882812 47.070312 340.175781 47.316406 367.792969 48.550781 C 393.316406 49.660156 407.1875 53.882812 416.417969 57.460938 C 428.660156 62.199219 437.398438 67.828125 446.578125 76.984375 C 455.761719 86.140625 461.460938 94.828125 466.226562 107.070312 C 469.828125 116.277344 474.125 130.148438 475.335938 155.644531 C 476.640625 183.265625 476.9375 191.558594 477.0625 261.457031 C 477.183594 331.382812 476.9375 339.675781 475.730469 367.269531 C 474.617188 392.792969 470.375 406.6875 466.820312 415.917969 C 462.078125 428.136719 456.425781 436.875 447.269531 446.054688 C 438.113281 455.210938 429.425781 460.914062 417.183594 465.703125 C 407.976562 469.304688 394.105469 473.601562 368.609375 474.808594 C 340.988281 476.117188 332.722656 476.414062 262.773438 476.539062 C 192.871094 476.660156 184.578125 476.414062 156.960938 475.207031 M 370.484375 121.90625 C 370.507812 139.257812 384.628906 153.300781 401.953125 153.25 C 419.304688 153.226562 433.351562 139.132812 433.324219 121.78125 C 433.300781 104.429688 419.183594 90.386719 401.832031 90.410156 C 384.480469 90.433594 370.433594 104.554688 370.460938 121.878906 M 127.910156 262.148438 C 128.054688 336.417969 188.378906 396.492188 262.625 396.347656 C 336.890625 396.199219 396.992188 335.898438 396.84375 261.628906 C 396.695312 187.386719 336.375 127.285156 262.105469 127.410156 C 187.859375 127.558594 127.761719 187.878906 127.910156 262.148438 M 175.074219 262.050781 C 175 213.847656 214 174.675781 262.203125 174.601562 C 310.40625 174.503906 349.578125 213.5 349.675781 261.730469 C 349.777344 309.933594 310.753906 349.105469 262.550781 349.179688 C 214.34375 349.277344 175.175781 310.253906 175.101562 262.050781 " fill-opacity="1" fill-rule="nonzero"/></g></svg>