<svg xmlns="http://www.w3.org/2000/svg" xmlns:xlink="http://www.w3.org/1999/xlink" width="700" zoomAndPan="magnify" viewBox="0 0 525 525.000007" height="700" preserveAspectRatio="xMidYMid meet" version="1.0"><defs><clipPath id="c30b3fcbf3"><path d="M 14.914062 34.222656 L 355 34.222656 L 355 405 L 14.914062 405 Z M 14.914062 34.222656 " clip-rule="nonzero"/></clipPath><clipPath id="8b5174d6c5"><path d="M 334 286 L 509.722656 286 L 509.722656 490 L 334 490 Z M 334 286 " clip-rule="nonzero"/></clipPath></defs><g clip-path="url(#c30b3fcbf3)"><path fill="#e92f39" d="M 14.996094 34.210938 L 14.996094 404.597656 L 354.796875 404.597656 L 354.796875 371.574219 L 48.019531 371.574219 L 48.019531 34.210938 Z M 14.996094 34.210938 " fill-opacity="1" fill-rule="nonzero"/></g><path fill="#e92f39" d="M 488.0625 388.085938 L 345.234375 470.644531 L 345.234375 305.523438 Z M 488.0625 388.085938 " fill-opacity="1" fill-rule="evenodd"/><g clip-path="url(#8b5174d6c5)"><path fill="#e92f39" d="M 334.226562 286.445312 L 334.226562 489.722656 L 510.058594 388.085938 L 493.570312 378.554688 Z M 356.242188 324.601562 L 466.066406 388.085938 L 356.242188 451.566406 Z M 356.242188 324.601562 " fill-opacity="1" fill-rule="evenodd"/></g></svg>